<svg width="100" height="20" viewBox="0 0 100 20" fill="none" xmlns="http://www.w3.org/2000/svg">
<path d="M20.1251 19.7812H23.3894C23.3894 15.5851 21.1784 11.9119 17.8719 9.89126C21.1784 7.8706 23.3893 4.19741 23.3893 0.00128174H20.125C20.125 3.97195 17.3159 7.29372 13.6233 8.07253V0.00128174H10.3594V8.07253C6.64937 7.30729 3.85762 3.98444 3.85762 0.00128174H0.593334C0.593334 4.19741 2.80429 7.8706 6.11079 9.89126C2.80426 11.9119 0.593262 15.5851 0.593262 19.7812H3.85754C3.85754 15.7981 6.64937 12.4752 10.3594 11.71V19.7849H13.6233V11.71C17.3333 12.4752 20.1251 15.7981 20.1251 19.7812Z" fill="black"/>
<path d="M53.6533 20.0001C49.3577 20.0001 46.2895 16.8929 46.2895 12.6557C46.2895 8.41858 49.3577 5.31134 53.6533 5.31134C57.921 5.31134 60.9892 8.41858 60.9892 12.6557C60.9892 16.8929 57.921 20.0001 53.6533 20.0001ZM53.6533 17.0059C55.9684 17.0059 57.5305 15.2263 57.5305 12.6557C57.5305 10.0852 55.9684 8.30559 53.6533 8.30559C51.3103 8.30559 49.7483 10.0852 49.7483 12.6557C49.7483 15.2263 51.3103 17.0059 53.6533 17.0059Z" fill="black"/>
<path d="M70.6496 8.44683V5.53732H69.4969C67.1539 5.53732 62.4678 6.961 62.4678 12.6557V19.7741H65.8987L66.0033 12.6557C66.0033 9.94396 66.7634 8.44683 68.939 8.44683H70.6496Z" fill="black"/>
<path d="M36.4217 0.000136828H32.9648V19.7702H36.4217V11.7093C40.109 12.4897 42.8786 15.8006 42.8786 19.7665H46.1407C46.1407 15.5733 43.9312 11.9026 40.6269 9.88333C43.9312 7.86405 46.1406 4.19338 46.1406 0.00012207H42.8785C42.8785 3.95354 40.0918 7.26324 36.4217 8.05719V0.000136828Z" fill="black"/>
<path d="M71.9527 1.24368H75.3836V5.53732H80.1501V8.44683H75.3836V14.6613C75.3836 16.1019 76.1367 16.8364 77.4198 16.8364H80.1501V19.7741H77.0293C73.961 19.7741 71.9527 17.9663 71.9527 14.8026V1.24368Z" fill="black"/>
<path d="M81.6122 1.85947C81.615 0.831776 82.4384 0.00012207 83.4532 0.00012207C84.4718 0.00012207 85.2968 0.837861 85.2941 1.86945L85.2939 1.94584C85.2912 2.97353 84.4678 3.80519 83.453 3.80519C82.4343 3.80519 81.6093 2.96745 81.612 1.93585L81.6122 1.85947ZM81.7566 19.7741V5.53732H85.1875V19.7741H81.7566Z" fill="black"/>
<path d="M89.9892 19.7657H86.8626C86.8626 16.8407 88.2941 14.2542 90.4863 12.6855C88.2942 11.1169 86.8628 8.53064 86.8628 5.60567H89.9893C89.9893 7.85264 91.3206 9.78474 93.2279 10.6371C95.1353 9.78474 96.4666 7.85264 96.4666 5.60567H99.5932C99.5932 8.53064 98.1618 11.1169 95.9697 12.6855C98.1619 14.2542 99.5933 16.8407 99.5934 19.7657H96.4668C96.4668 17.5188 95.1354 15.5867 93.2279 14.7343C91.3205 15.5867 89.9892 17.5188 89.9892 19.7657Z" fill="black"/>
</svg>
