<svg width="100" height="21" viewBox="0 0 100 21" fill="none" xmlns="http://www.w3.org/2000/svg">
<path d="M20.1251 19.8651H23.3894C23.3894 15.669 21.1784 11.9958 17.8719 9.97512C21.1784 7.95446 23.3893 4.28127 23.3893 0.085144H20.125C20.125 4.05582 17.3159 7.37758 13.6233 8.15639V0.085144H10.3594V8.15639C6.64937 7.39115 3.85762 4.0683 3.85762 0.085144H0.593334C0.593334 4.28127 2.80429 7.95446 6.11079 9.97512C2.80426 11.9958 0.593262 15.669 0.593262 19.8651H3.85754C3.85754 15.8819 6.64937 12.5591 10.3594 11.7939V19.8687H13.6233V11.7938C17.3333 12.5591 20.1251 15.8819 20.1251 19.8651Z" fill="black"/>
<path d="M53.6533 20.084C49.3577 20.084 46.2895 16.9767 46.2895 12.7396C46.2895 8.50244 49.3577 5.3952 53.6533 5.3952C57.921 5.3952 60.9892 8.50244 60.9892 12.7396C60.9892 16.9767 57.921 20.084 53.6533 20.084ZM53.6533 17.0897C55.9684 17.0897 57.5305 15.3101 57.5305 12.7396C57.5305 10.1691 55.9684 8.38945 53.6533 8.38945C51.3103 8.38945 49.7483 10.1691 49.7483 12.7396C49.7483 15.3101 51.3103 17.0897 53.6533 17.0897Z" fill="black"/>
<path d="M70.6496 8.53069V5.62118H69.4969C67.1539 5.62118 62.4678 7.04487 62.4678 12.7396V19.858H65.8987L66.0033 12.7396C66.0033 10.0278 66.7634 8.53069 68.939 8.53069H70.6496Z" fill="black"/>
<path d="M36.4217 0.0839991H32.9648V19.854H36.4217V11.7931C40.109 12.5736 42.8786 15.8845 42.8786 19.8504H46.1407C46.1407 15.6571 43.9312 11.9865 40.6269 9.96719C43.9312 7.94791 46.1406 4.27724 46.1406 0.0839844H42.8785C42.8785 4.03741 40.0918 7.34711 36.4217 8.14106V0.0839991Z" fill="black"/>
<path d="M71.9527 1.32754H75.3836V5.62118H80.1501V8.53069H75.3836V14.7452C75.3836 16.1858 76.1367 16.9202 77.4198 16.9202H80.1501V19.858H77.0293C73.961 19.858 71.9527 18.0502 71.9527 14.8864V1.32754Z" fill="black"/>
<path d="M81.6122 1.94333C81.615 0.915638 82.4384 0.0839844 83.4532 0.0839844C84.4718 0.0839844 85.2968 0.921723 85.2941 1.95332L85.2939 2.0297C85.2912 3.05739 84.4678 3.88905 83.453 3.88905C82.4343 3.88905 81.6093 3.05131 81.612 2.01972L81.6122 1.94333ZM81.7566 19.858V5.62118H85.1875V19.858H81.7566Z" fill="black"/>
<path d="M89.9892 19.8496H86.8626C86.8626 16.9245 88.2941 14.338 90.4863 12.7694C88.2942 11.2008 86.8628 8.61451 86.8628 5.68953H89.9893C89.9893 7.9365 91.3206 9.8686 93.2279 10.721C95.1353 9.8686 96.4666 7.9365 96.4666 5.68953H99.5932C99.5932 8.61451 98.1618 11.2008 95.9697 12.7694C98.1619 14.338 99.5933 16.9245 99.5934 19.8496H96.4668C96.4668 17.6026 95.1354 15.6706 93.2279 14.8182C91.3205 15.6706 89.9892 17.6026 89.9892 19.8496Z" fill="black"/>
</svg>
